<svg width="512" height="436" viewBox="0 0 512 436" fill="none" xmlns="http://www.w3.org/2000/svg">
<path d="M460.8 51.2H230.4L179.2 0H51.2C23.04 0 6e-07 23.04 0 51.2V153.6H512V102.4C512 74.24 488.96 51.2 460.8 51.2Z" fill="#FFA000"/>
<path d="M460.8 51.2H51.2C23.04 51.2 6e-07 74.24 0 102.4V358.4C0 386.56 23.04 409.6 51.2 409.6H460.8C488.96 409.6 512 386.56 512 358.4V102.4C512 74.24 488.96 51.2 460.8 51.2Z" fill="#FFCA28"/>
<path d="M76.7999 217.6V435.2H179.2V320H332.8V435.2H435.2V217.6H76.7999Z" fill="#39A9F4"/>
</svg>
